<svg width="25" height="24" viewBox="0 0 25 24" fill="none" xmlns="http://www.w3.org/2000/svg">
<path d="M19.0063 7.21429H16.8635V6.5C16.8635 3.74286 14.6206 1.5 11.8635 1.5C9.10635 1.5 6.86349 3.74286 6.86349 6.5V7.21429H4.72063C4.53119 7.21429 4.34951 7.28954 4.21556 7.4235C4.0816 7.55745 4.00635 7.73913 4.00635 7.92857V19.3571C4.00635 20.5386 4.96778 21.5 6.1492 21.5H17.5778C18.7592 21.5 19.7206 20.5386 19.7206 19.3571V7.92857C19.7206 7.73913 19.6454 7.55745 19.5114 7.4235C19.3775 7.28954 19.1958 7.21429 19.0063 7.21429ZM8.29206 6.5C8.29206 4.53071 9.89421 2.92857 11.8635 2.92857C13.8328 2.92857 15.4349 4.53071 15.4349 6.5V7.21429H8.29206V6.5ZM6.86349 8.64286V9.35714C6.86349 9.54658 6.93875 9.72826 7.0727 9.86222C7.20665 9.99617 7.38834 10.0714 7.57778 10.0714C7.76722 10.0714 7.9489 9.99617 8.08285 9.86222C8.21681 9.72826 8.29206 9.54658 8.29206 9.35714V8.64286H15.4349V9.35714C15.4349 9.54658 15.5102 9.72826 15.6441 9.86222C15.7781 9.99617 15.9598 10.0714 16.1492 10.0714C16.3386 10.0714 16.5203 9.99617 16.6543 9.86222C16.7882 9.72826 16.8635 9.54658 16.8635 9.35714V8.64286H18.2921V16.5H5.43492V8.64286H6.86349ZM17.5778 20.0714H6.1492C5.75563 20.0714 5.43492 19.7507 5.43492 19.3571V17.9286H18.2921V19.3571C18.2921 19.7507 17.9713 20.0714 17.5778 20.0714Z" fill="white"/>
</svg>
