<svg width="17" height="21" viewBox="0 0 17 21" fill="none" xmlns="http://www.w3.org/2000/svg">
<path d="M15.5796 6.21429H13.4367V5.5C13.4367 2.74286 11.1939 0.5 8.43673 0.5C5.67959 0.5 3.43673 2.74286 3.43673 5.5V6.21429H1.29388C1.10444 6.21429 0.922754 6.28954 0.788799 6.4235C0.654845 6.55745 0.57959 6.73913 0.57959 6.92857V18.3571C0.57959 19.5386 1.54102 20.5 2.72245 20.5H14.151C15.3324 20.5 16.2939 19.5386 16.2939 18.3571V6.92857C16.2939 6.73913 16.2186 6.55745 16.0847 6.4235C15.9507 6.28954 15.769 6.21429 15.5796 6.21429ZM4.8653 5.5C4.8653 3.53071 6.46745 1.92857 8.43673 1.92857C10.406 1.92857 12.0082 3.53071 12.0082 5.5V6.21429H4.8653V5.5ZM3.43673 7.64286V8.35714C3.43673 8.54658 3.51199 8.72826 3.64594 8.86222C3.7799 8.99617 3.96158 9.07143 4.15102 9.07143C4.34046 9.07143 4.52214 8.99617 4.65609 8.86222C4.79005 8.72826 4.8653 8.54658 4.8653 8.35714V7.64286H12.0082V8.35714C12.0082 8.54658 12.0834 8.72826 12.2174 8.86222C12.3513 8.99617 12.533 9.07143 12.7224 9.07143C12.9119 9.07143 13.0936 8.99617 13.2275 8.86222C13.3615 8.72826 13.4367 8.54658 13.4367 8.35714V7.64286H14.8653V15.5H2.00816V7.64286H3.43673ZM14.151 19.0714H2.72245C2.32888 19.0714 2.00816 18.7507 2.00816 18.3571V16.9286H14.8653V18.3571C14.8653 18.7507 14.5446 19.0714 14.151 19.0714Z" fill="white"/>
</svg>
