<svg width="20" height="18" viewBox="0 0 20 18" fill="none" xmlns="http://www.w3.org/2000/svg">
<path d="M18.5826 1.38398C17.6376 0.461197 16.3319 0 14.6651 0C14.2038 0 13.733 0.0799805 13.2532 0.239863C12.7732 0.399863 12.3267 0.615725 11.9141 0.887291C11.501 1.15878 11.146 1.41373 10.8481 1.65176C10.5507 1.88986 10.2678 2.1429 10 2.41067C9.73209 2.1429 9.44934 1.88986 9.15182 1.65176C8.8541 1.41373 8.49892 1.15893 8.08588 0.887291C7.67292 0.615607 7.22646 0.399902 6.74658 0.239863C6.26674 0.0800196 5.79604 0 5.33477 0C3.66804 0 2.36232 0.461314 1.41741 1.38398C0.472494 2.30657 0 3.58626 0 5.22316C0 5.72169 0.0875641 6.23527 0.262341 6.76327C0.437117 7.29155 0.636286 7.74176 0.859458 8.11372C1.08259 8.48563 1.33563 8.84832 1.61837 9.20178C1.90112 9.5552 2.10775 9.79878 2.23781 9.9327C2.36798 10.0666 2.47032 10.1635 2.54472 10.223L9.50892 16.9418C9.64288 17.0758 9.80656 17.1429 9.99998 17.1429C10.1934 17.1429 10.3572 17.0758 10.4911 16.9418L17.4442 10.2451C19.1481 8.54153 20 6.86741 20 5.22301C20 3.58599 19.5276 2.30642 18.5826 1.38398ZM16.4732 9.19619L10 15.435L3.51578 9.18493C2.12437 7.79387 1.42878 6.47302 1.42878 5.22301C1.42878 4.62042 1.50876 4.08835 1.66864 3.62715C1.82864 3.16587 2.03325 2.79932 2.28249 2.52775C2.53178 2.25611 2.83493 2.03493 3.19206 1.86367C3.5494 1.69257 3.89907 1.57721 4.24127 1.51771C4.58347 1.45829 4.948 1.42855 5.33496 1.42855C5.72181 1.42855 6.13856 1.5233 6.58498 1.71309C7.03132 1.9028 7.4424 2.1409 7.81811 2.42732C8.19389 2.71394 8.51569 2.98175 8.78366 3.23092C9.05147 3.48032 9.27461 3.70897 9.45321 3.91732C9.58706 4.08108 9.7695 4.16293 10.0001 4.16293C10.2307 4.16293 10.4129 4.08108 10.5469 3.91732C10.7255 3.70897 10.9488 3.48021 11.2166 3.23092C11.4845 2.98175 11.8063 2.71406 12.1819 2.42732C12.5577 2.1409 12.9688 1.9028 13.4154 1.71309C13.8616 1.52334 14.2785 1.42855 14.6654 1.42855C15.0523 1.42855 15.4167 1.45829 15.759 1.51771C16.1014 1.57717 16.451 1.69257 16.8082 1.86367C17.1654 2.03489 17.4686 2.25622 17.7178 2.52775C17.967 2.79932 18.1717 3.16587 18.3317 3.62715C18.4914 4.08835 18.5714 4.62042 18.5714 5.22301C18.5713 6.47302 17.8721 7.79755 16.4732 9.19619Z" fill="#37BA00"/>
</svg>
